<svg xmlns:xlink="http://www.w3.org/1999/xlink" xmlns="http://www.w3.org/2000/svg" viewBox="0 0 24 24" width="20"  height="20" ><defs><g id="ui-icon-coupon" viewBox="0 0 24 24"><path d="M22.12 12l-9.9-9.9A3 3 0 0 0 8 2.1l-.84.84A1 1 0 0 0 7 4.07 2 2 0 0 1 4.3 6.72a1 1 0 0 0-1.14.2l-.84.84a3 3 0 0 0 0 4.24l9.9 9.9a3 3 0 0 0 4.24 0l5.66-5.66A3 3 0 0 0 22.12 12ZM3.74 9.17l.38-.39A4 4 0 0 0 8 7.76 4 4 0 0 0 9 3.9l.38-.39a1 1 0 0 1 1.42 0l6.36 6.37L10.1 17 3.74 10.59A1 1 0 0 1 3.74 9.17Zm17 5.66-5.66 5.66a1 1 0 0 1-1.41 0l-2.13-2.13 7.08-7.07 2.12 2.12A1 1 0 0 1 20.71 14.83Z"></path></g></defs><use xlink:href="#ui-icon-coupon"></use></svg>